<svg xmlns="http://www.w3.org/2000/svg" viewBox="0 0 1366 641" preserveAspectRatio="xMidYMid" width="1366" height="641" style="shape-rendering: auto; display: block; background: rgb(255, 223, 223);"><g data-idx="1"><linearGradient y2="0" y1="0" x2="1" x1="0" id="lg-nq4q5u6dq7r" data-idx="2">
  <stop offset="0" stop-color="#5d0911" data-idx="3"></stop>
  <stop offset="1" stop-color="#be0027" data-idx="4"></stop>
</linearGradient><path opacity="0.4" fill="url(#lg-nq4q5u6dq7r)" d="M 0 0 L 0 434.457 Q 136.6 452.352 273.2 420.325 T 546.4 300.461 T 819.6 306.741 T 1092.8 258.497 T 1366 199.003 L 1366 0 Z" data-idx="5">
  
</path><path opacity="0.4" fill="url(#lg-nq4q5u6dq7r)" d="M 0 0 L 0 380.6 Q 136.6 392.871 273.2 368.113 T 546.4 379.813 T 819.6 329.42 T 1092.8 230.013 T 1366 253.037 L 1366 0 Z" data-idx="7">
  
</path><path opacity="0.4" fill="url(#lg-nq4q5u6dq7r)" d="M 0 0 L 0 449.366 Q 136.6 413.177 273.2 381.434 T 546.4 315.07 T 819.6 352.699 T 1092.8 236.27 T 1366 209.952 L 1366 0 Z" data-idx="9">
  
</path><path opacity="0.4" fill="url(#lg-nq4q5u6dq7r)" d="M 0 0 L 0 423.293 Q 136.6 414.716 273.2 370.265 T 546.4 311.16 T 819.6 329.153 T 1092.8 236.059 T 1366 183.263 L 1366 0 Z" data-idx="11">
  
</path><path opacity="0.4" fill="url(#lg-nq4q5u6dq7r)" d="M 0 0 L 0 439.7 Q 136.6 412.827 273.2 377.497 T 546.4 307.465 T 819.6 302.495 T 1092.8 283.302 T 1366 276.022 L 1366 0 Z" data-idx="13">
  
</path><g data-idx="15"></g></g><text data-watermark="true" text-anchor="middle" dominant-baseline="middle" stroke-opacity="0.1" fill="black" fill-opacity="0.1" stroke="white" stroke-width="1" font-size="15.0" x="683.0" y="320.5" data-idx="16" style="opacity: 1; font-size: 15px;"></text></svg>
